<svg width="24" height="24" viewBox="0 0 24 24" fill="none" xmlns="http://www.w3.org/2000/svg">
  <path d="M19.14 12.94C19.18 12.64 19.2 12.33 19.2 12C19.2 11.68 19.18 11.36 19.13 11.06L20.84 9.74C21.03 9.6 21.08 9.32 20.96 9.11L19.37 6.39C19.25 6.18 19 6.08 18.77 6.14L16.74 6.74C16.29 6.39 15.8 6.1 15.28 5.87L14.96 3.78C14.92 3.56 14.73 3.4 14.5 3.4H9.5C9.27 3.4 9.08 3.56 9.04 3.78L8.72 5.87C8.2 6.1 7.71 6.39 7.26 6.74L5.23 6.14C5 6.08 4.75 6.18 4.63 6.39L3.04 9.11C2.92 9.32 2.97 9.6 3.16 9.74L4.87 11.06C4.82 11.36 4.8 11.68 4.8 12C4.8 12.33 4.82 12.64 4.87 12.94L3.16 14.26C2.97 14.4 2.92 14.68 3.04 14.89L4.63 17.61C4.75 17.82 5 17.92 5.23 17.86L7.26 17.26C7.71 17.61 8.2 17.9 8.72 18.13L9.04 20.22C9.08 20.44 9.27 20.6 9.5 20.6H14.5C14.73 20.6 14.92 20.44 14.96 20.22L15.28 18.13C15.8 17.9 16.29 17.61 16.74 17.26L18.77 17.86C19 17.92 19.25 17.82 19.37 17.61L20.96 14.89C21.08 14.68 21.03 14.4 20.84 14.26L19.14 12.94ZM12 15.5C10.07 15.5 8.5 13.93 8.5 12C8.5 10.07 10.07 8.5 12 8.5C13.93 8.5 15.5 10.07 15.5 12C15.5 13.93 13.93 15.5 12 15.5Z" fill="#007aff"/>
</svg>
