<svg width="24" height="24" viewBox="0 0 24 24" fill="none" xmlns="http://www.w3.org/2000/svg">
  <path d="M12 2C6.48 2 2 6.48 2 12C2 17.52 6.48 22 12 22C17.52 22 22 17.52 22 12C22 6.48 17.52 2 12 2ZM11 19.93C7.05 19.44 4 16.08 4 12C4 11.38 4.08 10.79 4.21 10.21L9 15V16C9 17.1 9.9 18 11 18V19.93ZM17.9 17.39C17.64 16.58 16.9 16 16 16H15V13C15 12.45 14.55 12 14 12H8V10H10C10.55 10 11 9.55 11 9V7H13C14.1 7 15 7.9 15 9V10.5C15 10.5 15.03 10.5 15.06 10.5C17.07 12.24 17.9 14.72 17.9 17.39Z" fill="#007aff"/>
</svg>
